<?xml version="1.0" encoding="UTF-8"?>
<svg version="1.1" xmlns="http://www.w3.org/2000/svg" width="500" height="500">
<path d="M0 0 C3 1 3 1 4.76171875 4.25390625 C5.41323264 5.68578072 6.0544706 7.12235812 6.6875 8.5625 C7.39803501 10.12577588 8.1103167 11.68825888 8.82421875 13.25 C9.18563965 14.04535156 9.54706055 14.84070313 9.91943359 15.66015625 C12.77956696 21.85345001 15.9306213 27.90920164 19 34 C21.64 39.28 24.28 44.56 27 50 C44.16 50 61.32 50 79 50 C81.97 44.39 84.94 38.78 88 33 C88.66 33 89.32 33 90 33 C91.33819498 35.6226232 92.6707151 38.24786599 94 40.875 C94.3815625 41.62136719 94.763125 42.36773437 95.15625 43.13671875 C95.5171875 43.85214844 95.878125 44.56757813 96.25 45.3046875 C96.75273438 46.2944458 96.75273438 46.2944458 97.265625 47.30419922 C98 49 98 49 98 51 C125.72 51 153.44 51 182 51 C182.99 55.62 183.98 60.24 185 65 C190.65927076 77.21888006 197.2652155 84.16849994 210 89 C213.98294813 89.94487646 217.9295973 90.58141249 222 91 C222.96598945 95.83283336 223.12795634 100.51308454 223.08901978 105.42146301 C223.08523443 106.67153618 223.08523443 106.67153618 223.08137262 107.94686335 C223.07167276 110.73130198 223.05463564 113.51564616 223.03759766 116.30004883 C223.02908814 118.29928411 223.02101706 120.29852131 223.01335144 122.29776001 C222.99118105 127.72088304 222.96250754 133.14395376 222.93239641 138.56703782 C222.90172993 144.23736001 222.87611191 149.9077054 222.84970093 155.57804871 C222.80453458 165.09494123 222.7550518 174.61180424 222.703125 184.12866211 C222.64307234 195.14639368 222.59032299 206.16414246 222.54135668 217.18192846 C222.49916792 226.63338658 222.45311748 236.08482004 222.40379179 245.53624362 C222.37431113 251.18511836 222.34617724 256.83399126 222.32149124 262.48288918 C222.29808859 267.78767703 222.26985368 273.09241714 222.23780251 278.39715958 C222.22680799 280.3495425 222.21752817 282.30193589 222.21003914 284.2543354 C222.19958919 286.90742552 222.1830833 289.56040818 222.16494751 292.2134552 C222.16328728 292.99631214 222.16162706 293.77916909 222.15991652 294.58574897 C222.11415136 299.88584864 222.11415136 299.88584864 221 301 C219.2108876 301.24832162 217.4184949 301.47311051 215.625 301.6875 C208.50381378 302.81055446 201.49457938 305.48920447 196.31640625 310.69140625 C195 312 195 312 193 312 C192.72027344 312.58523438 192.44054687 313.17046875 192.15234375 313.7734375 C191.07740041 315.85044667 189.87967676 317.69642344 188.5625 319.625 C184.33786295 326.31712417 183.10950471 333.23346705 182 341 C71.78 341 -38.44 341 -152 341 C-152.99 336.38 -153.98 331.76 -155 327 C-159.55286585 315.81295819 -165.93586031 309.32281176 -176.8828125 304.18359375 C-180.85185835 302.67655002 -184.71874307 301.88291401 -188.91796875 301.32421875 C-191 301 -191 301 -192 300 C-192.09784411 297.30669231 -192.12993795 294.63903832 -192.12025452 291.94529724 C-192.12110894 291.09098037 -192.12196337 290.2366635 -192.12284368 289.35645825 C-192.12450111 286.4712606 -192.11897284 283.58612009 -192.11352539 280.70092773 C-192.11324355 278.64169313 -192.11340119 276.58245842 -192.1139679 274.52322388 C-192.11425599 268.91394913 -192.10835735 263.30469556 -192.10139394 257.69542575 C-192.09516237 251.8404137 -192.09455676 245.98540121 -192.09336853 240.13038635 C-192.09025463 229.03459239 -192.08204045 217.93880823 -192.07201904 206.84301859 C-192.06085972 194.21445826 -192.05534791 181.58589747 -192.05032361 168.95733345 C-192.03985789 142.97155019 -192.02225731 116.98577564 -192 91 C-191.19393311 90.88027832 -190.38786621 90.76055664 -189.55737305 90.63720703 C-188.49043213 90.47075684 -187.42349121 90.30430664 -186.32421875 90.1328125 C-185.27065186 89.97184082 -184.21708496 89.81086914 -183.1315918 89.64501953 C-174.40865277 87.84834027 -166.7192621 82.75720226 -161 76 C-155.80441188 67.77034707 -153.7921021 60.85656154 -152 51 C-89.135 50.505 -89.135 50.505 -25 50 C-13.18455207 26.39834461 -13.18455207 26.39834461 -1.80932617 2.59692383 C-1 1 -1 1 0 0 Z " fill="#353834" transform="translate(235,95)"/>
<path d="M0 0 C0.66 0 1.32 0 2 0 C3.33819498 2.6226232 4.6707151 5.24786599 6 7.875 C6.3815625 8.62136719 6.763125 9.36773437 7.15625 10.13671875 C7.5171875 10.85214844 7.878125 11.56757813 8.25 12.3046875 C8.58515625 12.96452637 8.9203125 13.62436523 9.265625 14.30419922 C10 16 10 16 10 18 C37.72 18 65.44 18 94 18 C94.99 22.62 95.98 27.24 97 32 C102.65927076 44.21888006 109.2652155 51.16849994 122 56 C125.98294813 56.94487646 129.9295973 57.58141249 134 58 C134.96598945 62.83283336 135.12795634 67.51308454 135.08901978 72.42146301 C135.08523443 73.67153618 135.08523443 73.67153618 135.08137262 74.94686335 C135.07167276 77.73130198 135.05463564 80.51564616 135.03759766 83.30004883 C135.02908814 85.29928411 135.02101706 87.29852131 135.01335144 89.29776001 C134.99118105 94.72088304 134.96250754 100.14395376 134.93239641 105.56703782 C134.90172993 111.23736001 134.87611191 116.9077054 134.84970093 122.57804871 C134.80453458 132.09494123 134.7550518 141.61180424 134.703125 151.12866211 C134.64307234 162.14639368 134.59032299 173.16414246 134.54135668 184.18192846 C134.49916792 193.63338658 134.45311748 203.08482004 134.40379179 212.53624362 C134.37431113 218.18511836 134.34617724 223.83399126 134.32149124 229.48288918 C134.29808859 234.78767703 134.26985368 240.09241714 134.23780251 245.39715958 C134.22680799 247.3495425 134.21752817 249.30193589 134.21003914 251.2543354 C134.19958919 253.90742552 134.1830833 256.56040818 134.16494751 259.2134552 C134.16328728 259.99631214 134.16162706 260.77916909 134.15991652 261.58574897 C134.11415136 266.88584864 134.11415136 266.88584864 133 268 C131.2108876 268.24832162 129.4184949 268.47311051 127.625 268.6875 C120.50381378 269.81055446 113.49457938 272.48920447 108.31640625 277.69140625 C107 279 107 279 105 279 C104.72027344 279.58523438 104.44054687 280.17046875 104.15234375 280.7734375 C103.07740041 282.85044667 101.87967676 284.69642344 100.5625 286.625 C96.33786295 293.31712417 95.10950471 300.23346705 94 308 C-16.22 308 -126.44 308 -240 308 C-240.99 303.38 -241.98 298.76 -243 294 C-247.55286585 282.81295819 -253.93586031 276.32281176 -264.8828125 271.18359375 C-268.85185835 269.67655002 -272.71874307 268.88291401 -276.91796875 268.32421875 C-279 268 -279 268 -280 267 C-280.09784411 264.30669231 -280.12993795 261.63903832 -280.12025452 258.94529724 C-280.12110894 258.09098037 -280.12196337 257.2366635 -280.12284368 256.35645825 C-280.12450111 253.4712606 -280.11897284 250.58612009 -280.11352539 247.70092773 C-280.11324355 245.64169313 -280.11340119 243.58245842 -280.1139679 241.52322388 C-280.11425599 235.91394913 -280.10835735 230.30469556 -280.10139394 224.69542575 C-280.09516237 218.8404137 -280.09455676 212.98540121 -280.09336853 207.13038635 C-280.09025463 196.03459239 -280.08204045 184.93880823 -280.07201904 173.84301859 C-280.06085972 161.21445826 -280.05534791 148.58589747 -280.05032361 135.95733345 C-280.03985789 109.97155019 -280.02225731 83.98577564 -280 58 C-279.19393311 57.88027832 -278.38786621 57.76055664 -277.55737305 57.63720703 C-276.49043213 57.47075684 -275.42349121 57.30430664 -274.32421875 57.1328125 C-273.27065186 56.97184082 -272.21708496 56.81086914 -271.1315918 56.64501953 C-262.4263638 54.85198824 -254.69052732 49.76540471 -249 43 C-244.96043618 36.32392697 -242.02284667 29.55619405 -240 22 C-239.505 20.515 -239.505 20.515 -239 19 C-197.75 19 -156.5 19 -114 19 C-114 19.66 -114 20.32 -114 21 C-154.59 21 -195.18 21 -237 21 C-237 23.31 -237 25.62 -237 28 C-240.32796525 40.11187352 -248.2748171 50.48889862 -259 57 C-265.3968797 60.0405479 -269.77818484 61 -277 61 C-277 128.32 -277 195.64 -277 265 C-274.03 265 -271.06 265 -268 265 C-254.92965968 269.13003319 -245.20568971 279.0771151 -239 291 C-237.0936845 295.4708655 -237 299.02755156 -237 304 C-128.76 304 -20.52 304 91 304 C91 302.02 91 300.04 91 298 C94.99438494 284.68538353 102.66195781 275.20508849 114.5703125 268.26171875 C115.77300781 267.63716797 115.77300781 267.63716797 117 267 C118.10988281 266.42185547 118.10988281 266.42185547 119.2421875 265.83203125 C122 265 122 265 131 265 C131 197.68 131 130.36 131 61 C128.36 61 125.72 61 123 61 C112.39913407 58.59502743 103.73522841 50.95319088 97.46875 42.3515625 C93.01989898 35.22866805 91.94188155 29.47693393 91 21 C64.93 21 38.86 21 12 21 C15.3 27.27 18.6 33.54 22 40 C23.90621402 43.88685201 25.79206882 47.76771247 27.625 51.6875 C30.56868547 57.94743114 33.56843916 64.17388175 36.66967773 70.35742188 C37.19285505 71.40216439 37.19285505 71.40216439 37.7266016 72.46801281 C38.81722458 74.64559772 39.90857009 76.82281943 41 79 C41.66698989 80.33126434 42.33394238 81.66254741 43.00085449 82.99385071 C44.33757826 85.66203452 45.67460674 88.33006536 47.01182556 90.9980011 C49.63636672 96.23468869 52.25879584 101.47243354 54.88104153 106.71027088 C56.85525783 110.65349194 58.83022691 114.59633228 60.80688477 118.53833008 C76.9343982 150.70347424 76.9343982 150.70347424 83.45336914 164.69018555 C84.34250242 166.5929448 85.25597115 168.48558639 86.23535156 170.34350586 C87 172 87 172 86.76171875 174.0546875 C82.6993238 184.42941921 68.06097123 192.62994517 58.3984375 197.0390625 C46.52737044 201.79522292 32.49061787 203.42069589 20.20703125 198.984375 C10.64087394 194.71769953 2.15383699 189.51530949 -2.05712891 179.48095703 C-3.39806586 175.70649282 -4.64570181 171.90646285 -5.87304688 168.09375 C-8.24521074 161.11623366 -11.0399847 155.79277752 -17.16015625 151.4765625 C-23.36064748 148.70098326 -28.15785935 147.96806469 -35 148 C-34.01 148.20753906 -33.02 148.41507813 -32 148.62890625 C-23.0514883 150.65447137 -16.22912627 152.80933819 -10.8125 160.73828125 C-8.51199345 164.93490844 -7.12213579 169.48957182 -5.5625 174 C-1.90679394 184.37998962 2.80640301 192.03618125 12.6796875 197.4765625 C27.5927606 204.54064976 41.4519562 204.36650925 57 199 C69.31766376 194.19899612 79.00880819 186.52709066 88 177 C92.62983032 180.74235707 94.52034016 185.84407452 96.9375 191.125 C97.89867176 193.18470134 98.86231859 195.24324905 99.828125 197.30078125 C100.59092773 198.9262085 100.59092773 198.9262085 101.36914062 200.58447266 C103.07416153 204.15531733 104.82861841 207.69699805 106.609375 211.23046875 C107.05785545 212.12064697 107.05785545 212.12064697 107.51539612 213.02880859 C108.98301693 215.93699523 110.45705871 218.84182761 111.93530273 221.74462891 C112.46583252 222.79440918 112.9963623 223.84418945 113.54296875 224.92578125 C114.01758545 225.85817627 114.49220215 226.79057129 114.98120117 227.7512207 C116 230 116 230 116 232 C-8.41 232 -132.82 232 -261 232 C-260.06012932 227.30064661 -258.5496664 223.70994007 -256.40234375 219.51171875 C-256.04862198 218.80852005 -255.69490021 218.10532135 -255.33045959 217.3808136 C-254.20509922 215.14681651 -253.07144457 212.91715008 -251.9375 210.6875 C-251.1706718 209.16889848 -250.40438962 207.65002112 -249.63867188 206.13085938 C-247.76542351 202.41734829 -245.88472764 198.70769727 -244 195 C-241 195 -241 195 -239.28125 196.6796875 C-238.6934375 197.40414062 -238.105625 198.12859375 -237.5 198.875 C-235.36959371 201.48194454 -233.83997143 203.10668572 -231 205 C-231 204.34 -231 203.68 -231 203 C-231.66 202.67 -232.32 202.34 -233 202 C-234.04364169 200.78619934 -235.03799285 199.52946951 -236 198.25 C-236.515625 197.57453125 -237.03125 196.8990625 -237.5625 196.203125 C-239.19541502 193.70050524 -240.34334267 191.93790197 -241 189 C-240.00985843 186.33633693 -238.99350272 184.14390236 -237.625 181.6875 C-236.86679084 180.25281372 -236.10898944 178.81791189 -235.3515625 177.3828125 C-234.9587207 176.65352539 -234.56587891 175.92423828 -234.16113281 175.17285156 C-232.37708963 171.83433509 -230.68716285 168.45073089 -229 165.0625 C-228.67225586 164.40886475 -228.34451172 163.75522949 -228.00683594 163.08178711 C-225.20269652 157.46871136 -222.53073188 151.79718684 -219.87695312 146.11181641 C-217.02704228 140.01806992 -214.05017668 133.99637007 -211 128 C-208 129 -208 129 -206.89860535 130.72596741 C-206.55332291 131.4842131 -206.20804047 132.2424588 -205.85229492 133.02368164 C-205.44682938 133.89560654 -205.04136383 134.76753143 -204.62361145 135.6658783 C-203.96494331 137.11710838 -203.96494331 137.11710838 -203.29296875 138.59765625 C-202.30781247 140.71233061 -201.31986499 142.82570618 -200.32958984 144.93798828 C-199.52856842 146.64936981 -199.52856842 146.64936981 -198.71136475 148.39532471 C-195.68680061 154.76601315 -192.5235125 161.06690066 -189.36328125 167.37109375 C-188.70021588 168.69590768 -188.0372013 170.02074703 -187.37423706 171.34561157 C-185.69711837 174.69558847 -184.01772811 178.04442179 -182.33782959 181.39300537 C-180.59933523 184.85954181 -178.86326477 188.3272918 -177.12695312 191.79492188 C-173.75359199 198.53109705 -170.37767781 205.26598809 -167 212 C-157.49557281 212 -148.99716305 204.91211589 -142 199 C-141.42378906 198.54496094 -140.84757813 198.08992187 -140.25390625 197.62109375 C-136.10076105 194.31722014 -132.69909621 191.09728863 -131 186 C-131.66 186 -132.32 186 -133 186 C-137.77736081 180.29439551 -139.83805154 174.89501165 -139.3984375 167.484375 C-138.6348709 162.7233127 -136.70899445 159.05905383 -133 156 C-129.91100034 155.26614925 -127.09862493 155.32322452 -124 156 C-120.86025914 159.06316181 -120.12868114 161.19931735 -119.4375 165.5 C-119.67729765 170.87980819 -121.95913574 175.87380093 -123.90625 180.828125 C-125.21732712 184.07105578 -125.21732712 184.07105578 -125 188 C-122.13868109 188.19779227 -122.13868109 188.19779227 -119 187 C-116.96005924 184.34526437 -115.80594144 181.27855616 -114.50390625 178.2109375 C-113.54814881 176.09505721 -112.58686204 173.98167022 -111.62158203 171.87011719 C-111.35190959 171.2749486 -111.08223715 170.67978001 -110.80439281 170.066576 C-106.63852514 160.92204153 -102.08005344 151.96466839 -97.58984375 142.9765625 C-96.64028849 141.0723167 -95.69087748 139.16799895 -94.74160767 137.26361084 C-92.79880648 133.36716699 -90.85420369 129.47162902 -88.90844727 125.57666016 C-86.40473596 120.56366319 -83.9085273 115.5469668 -81.41384029 110.52947426 C-79.48167744 106.64661334 -77.54422213 102.76641172 -75.60525703 98.88694382 C-74.68104545 97.0354931 -73.75883571 95.1830417 -72.83866692 93.3295784 C-71.56462669 90.76456641 -70.28318185 88.20339195 -68.99975586 85.64306641 C-68.62214615 84.8786322 -68.24453644 84.114198 -67.85548401 83.32659912 C-65.22826966 78.11413483 -65.22826966 78.11413483 -63 77 C-59.04 84.92 -55.08 92.84 -51 101 C-46.98979831 94.68374276 -46.98979831 94.68374276 -43.60546875 88.1875 C-43.21149902 87.34791748 -42.8175293 86.50833496 -42.41162109 85.64331055 C-42.00766113 84.77101807 -41.60370117 83.89872559 -41.1875 83 C-40.30980865 81.13093943 -39.43089014 79.26245466 -38.55078125 77.39453125 C-38.11975098 76.47881348 -37.6887207 75.5630957 -37.24462891 74.61962891 C-34.57660466 69.00411299 -31.7657547 63.45994575 -28.96337891 57.91064453 C-27.32090931 54.65317695 -25.6927038 51.388623 -24.0625 48.125 C-19.70833333 39.41666667 -15.35416667 30.70833333 -11 22 C-35.255 21.505 -35.255 21.505 -60 21 C-60.33 20.01 -60.66 19.02 -61 18 C-43.84 17.67 -26.68 17.34 -9 17 C-6.03 11.39 -3.06 5.78 0 0 Z " fill="#A1C6A5" transform="translate(323,128)"/>
<path d="M0 0 C0.66 0 1.32 0 2 0 C3.33819498 2.6226232 4.6707151 5.24786599 6 7.875 C6.3815625 8.62136719 6.763125 9.36773437 7.15625 10.13671875 C7.5171875 10.85214844 7.878125 11.56757813 8.25 12.3046875 C8.58515625 12.96452637 8.9203125 13.62436523 9.265625 14.30419922 C10 16 10 16 10 18 C37.72 18 65.44 18 94 18 C94.99 22.62 95.98 27.24 97 32 C102.65927076 44.21888006 109.2652155 51.16849994 122 56 C125.98294813 56.94487646 129.9295973 57.58141249 134 58 C134.96598945 62.83283336 135.12795634 67.51308454 135.08901978 72.42146301 C135.08523443 73.67153618 135.08523443 73.67153618 135.08137262 74.94686335 C135.07167276 77.73130198 135.05463564 80.51564616 135.03759766 83.30004883 C135.02908814 85.29928411 135.02101706 87.29852131 135.01335144 89.29776001 C134.99118105 94.72088304 134.96250754 100.14395376 134.93239641 105.56703782 C134.90172993 111.23736001 134.87611191 116.9077054 134.84970093 122.57804871 C134.80453458 132.09494123 134.7550518 141.61180424 134.703125 151.12866211 C134.64307234 162.14639368 134.59032299 173.16414246 134.54135668 184.18192846 C134.49916792 193.63338658 134.45311748 203.08482004 134.40379179 212.53624362 C134.37431113 218.18511836 134.34617724 223.83399126 134.32149124 229.48288918 C134.29808859 234.78767703 134.26985368 240.09241714 134.23780251 245.39715958 C134.22680799 247.3495425 134.21752817 249.30193589 134.21003914 251.2543354 C134.19958919 253.90742552 134.1830833 256.56040818 134.16494751 259.2134552 C134.16328728 259.99631214 134.16162706 260.77916909 134.15991652 261.58574897 C134.11415136 266.88584864 134.11415136 266.88584864 133 268 C131.2108876 268.24832162 129.4184949 268.47311051 127.625 268.6875 C120.50381378 269.81055446 113.49457938 272.48920447 108.31640625 277.69140625 C107 279 107 279 105 279 C104.72027344 279.58523438 104.44054687 280.17046875 104.15234375 280.7734375 C103.07740041 282.85044667 101.87967676 284.69642344 100.5625 286.625 C96.33786295 293.31712417 95.10950471 300.23346705 94 308 C-16.22 308 -126.44 308 -240 308 C-240.99 303.38 -241.98 298.76 -243 294 C-247.55286585 282.81295819 -253.93586031 276.32281176 -264.8828125 271.18359375 C-268.85185835 269.67655002 -272.71874307 268.88291401 -276.91796875 268.32421875 C-279 268 -279 268 -280 267 C-280.09784411 264.30669231 -280.12993795 261.63903832 -280.12025452 258.94529724 C-280.12110894 258.09098037 -280.12196337 257.2366635 -280.12284368 256.35645825 C-280.12450111 253.4712606 -280.11897284 250.58612009 -280.11352539 247.70092773 C-280.11324355 245.64169313 -280.11340119 243.58245842 -280.1139679 241.52322388 C-280.11425599 235.91394913 -280.10835735 230.30469556 -280.10139394 224.69542575 C-280.09516237 218.8404137 -280.09455676 212.98540121 -280.09336853 207.13038635 C-280.09025463 196.03459239 -280.08204045 184.93880823 -280.07201904 173.84301859 C-280.06085972 161.21445826 -280.05534791 148.58589747 -280.05032361 135.95733345 C-280.03985789 109.97155019 -280.02225731 83.98577564 -280 58 C-279.19393311 57.88027832 -278.38786621 57.76055664 -277.55737305 57.63720703 C-276.49043213 57.47075684 -275.42349121 57.30430664 -274.32421875 57.1328125 C-273.27065186 56.97184082 -272.21708496 56.81086914 -271.1315918 56.64501953 C-262.4263638 54.85198824 -254.69052732 49.76540471 -249 43 C-244.96043618 36.32392697 -242.02284667 29.55619405 -240 22 C-239.505 20.515 -239.505 20.515 -239 19 C-197.75 19 -156.5 19 -114 19 C-114 19.66 -114 20.32 -114 21 C-154.59 21 -195.18 21 -237 21 C-237 23.31 -237 25.62 -237 28 C-240.32796525 40.11187352 -248.2748171 50.48889862 -259 57 C-265.3968797 60.0405479 -269.77818484 61 -277 61 C-277 128.32 -277 195.64 -277 265 C-274.03 265 -271.06 265 -268 265 C-254.92965968 269.13003319 -245.20568971 279.0771151 -239 291 C-237.0936845 295.4708655 -237 299.02755156 -237 304 C-128.76 304 -20.52 304 91 304 C91 302.02 91 300.04 91 298 C94.99438494 284.68538353 102.66195781 275.20508849 114.5703125 268.26171875 C115.77300781 267.63716797 115.77300781 267.63716797 117 267 C118.10988281 266.42185547 118.10988281 266.42185547 119.2421875 265.83203125 C122 265 122 265 131 265 C131 197.68 131 130.36 131 61 C128.36 61 125.72 61 123 61 C112.39913407 58.59502743 103.73522841 50.95319088 97.46875 42.3515625 C93.01989898 35.22866805 91.94188155 29.47693393 91 21 C64.93 21 38.86 21 12 21 C15.3 27.27 18.6 33.54 22 40 C23.90621402 43.88685201 25.79206882 47.76771247 27.625 51.6875 C30.56868547 57.94743114 33.56843916 64.17388175 36.66967773 70.35742188 C37.19285505 71.40216439 37.19285505 71.40216439 37.7266016 72.46801281 C38.81722458 74.64559772 39.90857009 76.82281943 41 79 C41.66698989 80.33126434 42.33394238 81.66254741 43.00085449 82.99385071 C44.33757826 85.66203452 45.67460674 88.33006536 47.01182556 90.9980011 C49.63636672 96.23468869 52.25879584 101.47243354 54.88104153 106.71027088 C56.85525783 110.65349194 58.83022691 114.59633228 60.80688477 118.53833008 C76.9343982 150.70347424 76.9343982 150.70347424 83.45336914 164.69018555 C84.34250242 166.5929448 85.25597115 168.48558639 86.23535156 170.34350586 C87 172 87 172 86.76171875 174.0546875 C82.6993238 184.42941921 68.06097123 192.62994517 58.3984375 197.0390625 C46.52737044 201.79522292 32.49061787 203.42069589 20.20703125 198.984375 C10.64087394 194.71769953 2.15383699 189.51530949 -2.05712891 179.48095703 C-3.39806586 175.70649282 -4.64570181 171.90646285 -5.87304688 168.09375 C-8.23408741 161.14895198 -11.01264055 155.79261756 -17.125 151.51171875 C-17.74375 151.23972656 -18.3625 150.96773437 -19 150.6875 C-19.61875 150.40261719 -20.2375 150.11773437 -20.875 149.82421875 C-23.1137176 148.89869175 -23.1137176 148.89869175 -26.03125 148.29296875 C-29.91817259 146.60011168 -30.89765274 144.33385111 -32.5 140.625 C-34.73586875 135.62769503 -37.05955111 130.80990739 -39.89360046 126.11656189 C-51.17111663 107.41420328 -51.17111663 107.41420328 -50.88964844 100.15332031 C-49.49512159 94.84609223 -46.67146321 90.53124031 -43.48681641 86.11767578 C-41.18453681 82.83853404 -39.44011052 79.31363467 -37.625 75.75 C-36.87613718 74.35225473 -36.12610646 72.95513464 -35.375 71.55859375 C-32.14097251 65.43646033 -29.21347184 59.16757158 -26.2512207 52.91088867 C-21.326072 42.52605886 -16.16688079 32.26665923 -11 22 C-35.255 21.505 -35.255 21.505 -60 21 C-60.33 20.01 -60.66 19.02 -61 18 C-43.84 17.67 -26.68 17.34 -9 17 C-6.03 11.39 -3.06 5.78 0 0 Z " fill="#728B75" transform="translate(323,128)"/>
<path d="M0 0 C3 1 3 1 4.76171875 4.25390625 C5.41328386 5.68575741 6.05451244 7.12233974 6.6875 8.5625 C7.39928252 10.1297064 8.11286655 11.69609568 8.828125 13.26171875 C9.18970703 14.05755371 9.55128906 14.85338867 9.92382812 15.67333984 C11.51622055 19.11605759 13.22326407 22.49109827 14.9375 25.875 C19.42549518 34.85099035 23.70395563 43.93057299 28 53 C52.75 53.495 52.75 53.495 78 54 C72.15198903 66.34580093 66.24676091 78.62406834 60.08496094 90.80957031 C59.1588131 92.64288345 58.23507579 94.47738681 57.3125 96.3125 C56.99893555 96.93495605 56.68537109 97.55741211 56.36230469 98.19873047 C54.08922208 102.74160136 51.88942454 107.31740338 49.7109375 111.90625 C49.12464108 113.13763678 48.53829637 114.36900057 47.9519043 115.6003418 C46.78733469 118.04640761 45.6314309 120.49633715 44.47973633 122.94848633 C43.94372803 124.07536865 43.40771973 125.20225098 42.85546875 126.36328125 C42.13846802 127.88369019 42.13846802 127.88369019 41.40698242 129.43481445 C40.1337067 131.75622831 38.98285278 133.27796215 37 135 C36.71278076 134.45061768 36.42556152 133.90123535 36.12963867 133.33520508 C34.81713603 130.82682556 33.50233934 128.3196554 32.1875 125.8125 C31.73568359 124.94818359 31.28386719 124.08386719 30.81835938 123.19335938 C30.37685547 122.35224609 29.93535156 121.51113281 29.48046875 120.64453125 C28.87561646 119.48981323 28.87561646 119.48981323 28.25854492 118.31176758 C26.90750434 115.83009866 25.45966932 113.41903415 24 111 C23.75299788 111.49400425 23.50599575 111.9880085 23.25150871 112.49698257 C5.16767248 148.66465505 -12.91616376 184.83232752 -31 221 C-32.98 221 -34.96 221 -37 221 C-38.68709085 216.91865448 -37.14731012 214.18410859 -35.5625 210.25 C-33.53836686 204.94352595 -32.15691216 200.6908429 -33 195 C-34.37926773 192.65738392 -34.37926773 192.65738392 -36 191 C-36 190.34 -36 189.68 -36 189 C-42.34500144 189.06944832 -42.34500144 189.06944832 -47.5 192.375 C-50.55182451 197.7156929 -50.77123525 202.97780137 -50 209 C-48.90170045 211.38860952 -47.66595341 213.3407678 -46.09375 215.44140625 C-45 217 -45 217 -45 219 C-44.34 219 -43.68 219 -43 219 C-44.64970162 227.52654769 -53.31770638 233.269513 -60 238 C-64.88461574 241.01636911 -69.79455012 243.58719909 -75.17724609 245.58276367 C-76.25261124 245.98249641 -76.25261124 245.98249641 -77.34970093 246.39030457 C-77.89429962 246.59150406 -78.43889832 246.79270355 -79 247 C-82.37109647 241.07431319 -85.63733194 235.09904121 -88.83886719 229.08007812 C-89.93761867 227.04276938 -91.05914794 225.01756585 -92.20410156 223.00585938 C-93.85497537 220.09594219 -95.4166552 217.15103374 -96.96875 214.1875 C-97.49126343 213.30763428 -98.01377686 212.42776855 -98.55212402 211.52124023 C-100.06931879 208.49516486 -100.8096488 206.392296 -101 203 C-99.3097117 198.00430626 -96.8740629 193.6483988 -94.21206284 189.11240005 C-92.26368073 185.71673248 -90.56309091 182.20495961 -88.83813477 178.69213867 C-88.12109841 177.2581731 -87.40277803 175.82484894 -86.6832428 174.39213562 C-83.89958846 168.8371952 -81.11802501 163.28120818 -78.33665562 157.72512341 C-76.24137058 153.53976604 -74.14533302 149.35478903 -72.04760742 145.1706543 C-60.14647083 121.52346377 -60.14647083 121.52346377 -48.71289062 97.6484375 C-45.94364362 91.69932165 -42.96321002 85.85275352 -40.00585938 79.99560547 C-38.22380471 76.46004362 -36.45666865 72.91702222 -34.6875 69.375 C-34.04563645 68.09111407 -33.40371259 66.80725829 -32.76171875 65.5234375 C-32.18035156 64.36070312 -31.59898437 63.19796875 -31 62 C-30.01 60.02 -29.02 58.04 -28 56 C-67.93 55.67 -107.86 55.34 -149 55 C-149 54.67 -149 54.34 -149 54 C-108.41 54 -67.82 54 -26 54 C-26 53.34 -26 52.68 -26 52 C-67.25 52 -108.5 52 -151 52 C-151.33 52.99 -151.66 53.98 -152 55 C-152 53.68 -152 52.36 -152 51 C-89.135 50.505 -89.135 50.505 -25 50 C-13.18455207 26.39834461 -13.18455207 26.39834461 -1.80932617 2.59692383 C-1 1 -1 1 0 0 Z " fill="#516353" transform="translate(235,95)"/>
<path d="M0 0 C2.27740922 2.87372547 4.00012649 5.75662155 5.63208008 9.03710938 C6.13302689 10.03915405 6.63397369 11.04119873 7.15010071 12.0736084 C7.68451279 13.15275513 8.21892487 14.23190186 8.76953125 15.34375 C9.32815353 16.46382446 9.88677582 17.58389893 10.46232605 18.73791504 C11.94738944 21.71733601 13.42897552 24.69843394 14.90887451 27.68041992 C16.39540929 30.67377182 17.88640579 33.6648941 19.37695312 36.65625 C22.0805443 42.0834288 24.78202796 47.51163758 27.4750061 52.9440918 C28.54639227 55.09102352 29.62838327 57.23267995 30.71810913 59.37036133 C31.26834747 60.452771 31.81858582 61.53518066 32.38549805 62.65039062 C32.88671677 63.62899048 33.38793549 64.60759033 33.90434265 65.61584473 C35 68 35 68 35 70 C32.03 70.495 32.03 70.495 29 71 C29.99 71.66 30.98 72.32 32 73 C31.16597656 73.09796875 30.33195313 73.1959375 29.47265625 73.296875 C13.91013575 75.36474714 2.946693 82.56635377 -8.98046875 92.53125 C-35.65524109 114.34037822 -35.65524109 114.34037822 -49.34350586 113.9296875 C-52.16638042 113.92127435 -54.32458016 114.07751655 -57 115 C-59.69746207 118.12485217 -61.05458072 121.68770809 -62.5625 125.5 C-66.89904196 135.69467758 -71.76413697 145.11003649 -77 155 C-116.6 155 -156.2 155 -197 155 C-196.06012932 150.30064661 -194.5496664 146.70994007 -192.40234375 142.51171875 C-192.04862198 141.80852005 -191.69490021 141.10532135 -191.33045959 140.3808136 C-190.20509922 138.14681651 -189.07144457 135.91715008 -187.9375 133.6875 C-187.1706718 132.16889848 -186.40438962 130.65002112 -185.63867188 129.13085938 C-183.76542351 125.41734829 -181.88472764 121.70769727 -180 118 C-177 118 -177 118 -175.28125 119.6796875 C-174.39953125 120.76636719 -174.39953125 120.76636719 -173.5 121.875 C-171.36959371 124.48194454 -169.83997143 126.10668572 -167 128 C-167 127.34 -167 126.68 -167 126 C-167.66 125.67 -168.32 125.34 -169 125 C-170.04364169 123.78619934 -171.03799285 122.52946951 -172 121.25 C-172.515625 120.57453125 -173.03125 119.8990625 -173.5625 119.203125 C-175.19541502 116.70050524 -176.34334267 114.93790197 -177 112 C-176.00985843 109.33633693 -174.99350272 107.14390236 -173.625 104.6875 C-172.86679084 103.25281372 -172.10898944 101.81791189 -171.3515625 100.3828125 C-170.9587207 99.65352539 -170.56587891 98.92423828 -170.16113281 98.17285156 C-168.37708963 94.83433509 -166.68716285 91.45073089 -165 88.0625 C-164.67225586 87.40886475 -164.34451172 86.75522949 -164.00683594 86.08178711 C-161.20269652 80.46871136 -158.53073188 74.79718684 -155.87695312 69.11181641 C-153.02704228 63.01806992 -150.05017668 56.99637007 -147 51 C-144 52 -144 52 -142.89860535 53.72596741 C-142.55332291 54.4842131 -142.20804047 55.2424588 -141.85229492 56.02368164 C-141.44682938 56.89560654 -141.04136383 57.76753143 -140.62361145 58.6658783 C-139.96494331 60.11710838 -139.96494331 60.11710838 -139.29296875 61.59765625 C-138.30781247 63.71233061 -137.31986499 65.82570618 -136.32958984 67.93798828 C-135.52856842 69.64936981 -135.52856842 69.64936981 -134.71136475 71.39532471 C-131.68680061 77.76601315 -128.5235125 84.06690066 -125.36328125 90.37109375 C-124.70021588 91.69590768 -124.0372013 93.02074703 -123.37423706 94.34561157 C-121.69711837 97.69558847 -120.01772811 101.04442179 -118.33782959 104.39300537 C-116.59933523 107.85954181 -114.86326477 111.3272918 -113.12695312 114.79492188 C-109.75359199 121.53109705 -106.37767781 128.26598809 -103 135 C-93.49557281 135 -84.99716305 127.91211589 -78 122 C-77.42378906 121.54496094 -76.84757812 121.08992188 -76.25390625 120.62109375 C-72.10076105 117.31722014 -68.69909621 114.09728863 -67 109 C-67.66 109 -68.32 109 -69 109 C-73.77736081 103.29439551 -75.83805154 97.89501165 -75.3984375 90.484375 C-74.6348709 85.7233127 -72.70899445 82.05905383 -69 79 C-65.91100034 78.26614925 -63.09862493 78.32322452 -60 79 C-56.86025914 82.06316181 -56.12868114 84.19931735 -55.4375 88.5 C-55.67729765 93.87980819 -57.95913574 98.87380093 -59.90625 103.828125 C-61.21732712 107.07105578 -61.21732712 107.07105578 -61 111 C-58.13851145 111.19781235 -58.13851145 111.19781235 -55 110 C-52.96166195 107.34506655 -51.80883657 104.27811511 -50.5078125 101.2109375 C-49.55244869 99.09495334 -48.59130046 96.9815761 -47.62597656 94.87011719 C-47.35617666 94.2749486 -47.08637676 93.67978001 -46.80840111 93.066576 C-42.6370398 83.91812904 -38.05893631 74.96405662 -33.5546875 65.9765625 C-32.60263888 64.07236828 -31.65083805 62.16805015 -30.69927979 60.26361084 C-28.75206375 56.36727257 -26.80340635 52.47166058 -24.85351562 48.57666016 C-22.343456 43.56232326 -19.83708616 38.54615198 -17.33170891 33.52947426 C-15.39272159 29.6479021 -13.45184617 25.76727652 -11.51037979 21.88694382 C-10.58396802 20.0347874 -9.65815053 18.1823336 -8.73293686 16.3295784 C-7.45262786 13.76643814 -6.16978651 11.20458181 -4.88623047 8.64306641 C-4.31442299 7.4964151 -4.31442299 7.4964151 -3.73106384 6.32659912 C-1.11428136 1.11428136 -1.11428136 1.11428136 0 0 Z " fill="#374437" transform="translate(259,205)"/>
<path d="M0 0 C5.9265039 0.12346883 8.94625873 1.92470064 13.21875 6 C17.62381781 10.94604105 19.30034263 16.81939365 21.4375 23 C25.09320606 33.37998962 29.80640301 41.03618125 39.6796875 46.4765625 C54.5927606 53.54064976 68.4519562 53.36650925 84 48 C96.31766376 43.19899612 106.00880819 35.52709066 115 26 C119.62983032 29.74235707 121.52034016 34.84407452 123.9375 40.125 C124.89867176 42.18470134 125.86231859 44.24324905 126.828125 46.30078125 C127.33666016 47.38439941 127.84519531 48.46801758 128.36914062 49.58447266 C130.07416153 53.15531733 131.82861841 56.69699805 133.609375 60.23046875 C133.90836197 60.8239209 134.20734894 61.41737305 134.51539612 62.02880859 C135.98301693 64.93699523 137.45705871 67.84182761 138.93530273 70.74462891 C139.46583252 71.79440918 139.9963623 72.84418945 140.54296875 73.92578125 C141.2548938 75.32437378 141.2548938 75.32437378 141.98120117 76.7512207 C143 79 143 79 143 81 C109.01 81 75.02 81 40 81 C18.69006849 38.38013699 18.69006849 38.38013699 12.1875 24.52734375 C9.32436071 18.51342572 6.19318282 12.63849227 3.04443359 6.77026367 C0 1.09039615 0 1.09039615 0 0 Z " fill="#718A74" transform="translate(296,279)"/>
<path d="M0 0 C2.27740922 2.87372547 4.00012649 5.75662155 5.63208008 9.03710938 C6.13302689 10.03915405 6.63397369 11.04119873 7.15010071 12.0736084 C7.68451279 13.15275513 8.21892487 14.23190186 8.76953125 15.34375 C9.32815353 16.46382446 9.88677582 17.58389893 10.46232605 18.73791504 C11.94738944 21.71733601 13.42897552 24.69843394 14.90887451 27.68041992 C16.39540929 30.67377182 17.88640579 33.6648941 19.37695312 36.65625 C22.0805443 42.0834288 24.78202796 47.51163758 27.4750061 52.9440918 C28.54639227 55.09102352 29.62838327 57.23267995 30.71810913 59.37036133 C31.26834747 60.452771 31.81858582 61.53518066 32.38549805 62.65039062 C32.88671677 63.62899048 33.38793549 64.60759033 33.90434265 65.61584473 C35 68 35 68 35 70 C33.9584375 70.0515625 32.916875 70.103125 31.84375 70.15625 C15.09804099 71.3399916 3.50141399 78.02691822 -9 89 C-37.00835635 112.40498736 -37.00835635 112.40498736 -55 111 C-45.41959792 88.09964097 -33.59448817 66.02980291 -22.48706055 43.84375 C-20.22700577 39.3294413 -17.97066173 34.81328884 -15.71529102 30.29663849 C-13.96588688 26.7942341 -12.21459627 23.29277575 -10.46271324 19.79161072 C-9.62840755 18.12366592 -8.79469495 16.45542432 -7.96158791 14.78688049 C-6.81070922 12.48260129 -5.65729992 10.17960714 -4.50317383 7.87695312 C-4.16094284 7.19046692 -3.81871185 6.50398071 -3.46611023 5.79669189 C-1.11428559 1.11428559 -1.11428559 1.11428559 0 0 Z " fill="#A1C5A5" transform="translate(259,205)"/>
<path d="M0 0 C41.25 0 82.5 0 125 0 C125 0.66 125 1.32 125 2 C84.41 2 43.82 2 2 2 C2 4.31 2 6.62 2 9 C-1.32796525 21.11187352 -9.2748171 31.48889862 -20 38 C-26.3968797 41.0405479 -30.77818484 42 -38 42 C-38 109.32 -38 176.64 -38 246 C-35.03 246 -32.06 246 -29 246 C-15.92965968 250.13003319 -6.20568971 260.0771151 0 272 C1.9063155 276.4708655 2 280.02755156 2 285 C110.24 285 218.48 285 330 285 C330 283.02 330 281.04 330 279 C333.99438494 265.68538353 341.66195781 256.20508849 353.5703125 249.26171875 C354.77300781 248.63716797 354.77300781 248.63716797 356 248 C357.10988281 247.42185547 357.10988281 247.42185547 358.2421875 246.83203125 C361 246 361 246 370 246 C370 178.68 370 111.36 370 42 C367.36 42 364.72 42 362 42 C351.39913407 39.59502743 342.73522841 31.95319088 336.46875 23.3515625 C332.01989898 16.22866805 330.94188155 10.47693393 330 2 C303.6 2 277.2 2 250 2 C250 1.34 250 0.68 250 0 C277.06 0 304.12 0 332 0 C333.65 4.95 335.3 9.9 337 15 C342.33344606 26.22830749 349.27286249 32.5507951 361 37 C364.98294813 37.94487646 368.9295973 38.58141249 373 39 C373.96598945 43.83283336 374.12795634 48.51308454 374.08901978 53.42146301 C374.08523443 54.67153618 374.08523443 54.67153618 374.08137262 55.94686335 C374.07167276 58.73130198 374.05463564 61.51564616 374.03759766 64.30004883 C374.02908814 66.29928411 374.02101706 68.29852131 374.01335144 70.29776001 C373.99118105 75.72088304 373.96250754 81.14395376 373.93239641 86.56703782 C373.90172993 92.23736001 373.87611191 97.9077054 373.84970093 103.57804871 C373.80453458 113.09494123 373.7550518 122.61180424 373.703125 132.12866211 C373.64307234 143.14639368 373.59032299 154.16414246 373.54135668 165.18192846 C373.49916792 174.63338658 373.45311748 184.08482004 373.40379179 193.53624362 C373.37431113 199.18511836 373.34617724 204.83399126 373.32149124 210.48288918 C373.29808859 215.78767703 373.26985368 221.09241714 373.23780251 226.39715958 C373.22680799 228.3495425 373.21752817 230.30193589 373.21003914 232.2543354 C373.19958919 234.90742552 373.1830833 237.56040818 373.16494751 240.2134552 C373.16328728 240.99631214 373.16162706 241.77916909 373.15991652 242.58574897 C373.11415136 247.88584864 373.11415136 247.88584864 372 249 C370.2108876 249.24832162 368.4184949 249.47311051 366.625 249.6875 C359.50381378 250.81055446 352.49457938 253.48920447 347.31640625 258.69140625 C346 260 346 260 344 260 C343.72027344 260.58523438 343.44054687 261.17046875 343.15234375 261.7734375 C342.07740041 263.85044667 340.87967676 265.69642344 339.5625 267.625 C335.33786295 274.31712417 334.10950471 281.23346705 333 289 C222.78 289 112.56 289 -1 289 C-1.99 284.38 -2.98 279.76 -4 275 C-8.55286585 263.81295819 -14.93586031 257.32281176 -25.8828125 252.18359375 C-29.85185835 250.67655002 -33.71874307 249.88291401 -37.91796875 249.32421875 C-40 249 -40 249 -41 248 C-41.09784411 245.30669231 -41.12993795 242.63903832 -41.12025452 239.94529724 C-41.12110894 239.09098037 -41.12196337 238.2366635 -41.12284368 237.35645825 C-41.12450111 234.4712606 -41.11897284 231.58612009 -41.11352539 228.70092773 C-41.11324355 226.64169313 -41.11340119 224.58245842 -41.1139679 222.52322388 C-41.11425599 216.91394913 -41.10835735 211.30469556 -41.10139394 205.69542575 C-41.09516237 199.8404137 -41.09455676 193.98540121 -41.09336853 188.13038635 C-41.09025463 177.03459239 -41.08204045 165.93880823 -41.07201904 154.84301859 C-41.06085972 142.21445826 -41.05534791 129.58589747 -41.05032361 116.95733345 C-41.03985789 90.97155019 -41.02225731 64.98577564 -41 39 C-40.19393311 38.88027832 -39.38786621 38.76055664 -38.55737305 38.63720703 C-37.49043213 38.47075684 -36.42349121 38.30430664 -35.32421875 38.1328125 C-34.27065186 37.97184082 -33.21708496 37.81086914 -32.1315918 37.64501953 C-23.4263638 35.85198824 -15.69052732 30.76540471 -10 24 C-5.96043618 17.32392697 -3.02284667 10.55619405 -1 3 C-0.67 2.01 -0.34 1.02 0 0 Z " fill="#A1BDA4" transform="translate(84,147)"/>
<path d="M0 0 C3 1 3 1 4.10139465 2.72795105 C4.44667709 3.48699234 4.79195953 4.24603363 5.14770508 5.02807617 C5.55317062 5.90063553 5.95863617 6.77319489 6.37638855 7.67219543 C6.81550064 8.64017563 7.25461273 9.60815582 7.70703125 10.60546875 C8.69198298 12.72056371 9.67994148 14.83426027 10.67041016 16.94677734 C11.20442444 18.08693298 11.73843872 19.22708862 12.28863525 20.40179443 C15.30784626 26.74979352 18.47518211 33.02279806 21.63671875 39.30078125 C22.29988307 40.62076429 22.96289731 41.94082275 23.62576294 43.26095581 C26.34204817 48.66862189 29.06305082 54.07390598 31.78686523 59.4777832 C33.48222189 62.84181236 35.17373436 66.20775111 36.86286354 69.57491112 C37.50049188 70.84397276 38.13963591 72.11227406 38.78034019 73.37978554 C39.66403844 75.12808758 40.54248596 76.87904072 41.4206543 78.63012695 C41.92042282 79.62220657 42.42019135 80.61428619 42.93510437 81.63642883 C44 84 44 84 44 86 C42.10454608 86.48066535 40.20861961 86.95946743 38.3125 87.4375 C37.25675781 87.70433594 36.20101562 87.97117187 35.11328125 88.24609375 C16.8546873 92.66756004 0.76068155 88.58460793 -15 79 C-18.34788008 76.59269263 -21.21072887 74.03104727 -24 71 C-24.64066406 70.31679688 -25.28132813 69.63359375 -25.94140625 68.9296875 C-29.16939988 65.13119835 -29.16939988 65.13119835 -30 63 C-28.92448048 58.23698498 -26.60235957 54.00411746 -24.375 49.6875 C-21.49399681 44.02620038 -18.72839768 38.32803002 -16.0625 32.5625 C-12.94856133 25.84964591 -9.59101879 19.29641579 -6.05688477 12.79516602 C-3.79290168 8.60867155 -1.81230487 4.40212855 0 0 Z " fill="#8FB194" transform="translate(112,256)"/>
<path d="M0 0 C0.66 0.66 1.32 1.32 2 2 C2.46535156 2.45761719 2.93070313 2.91523438 3.41015625 3.38671875 C4.51206685 4.50487373 5.58077965 5.65635098 6.62109375 6.83203125 C15.61926808 16.64294391 29.35698208 24.28194404 42.76464844 25.18652344 C52.33380439 25.55468492 61.74751377 25.78884451 71.07714844 23.43212891 C73.41573743 22.90656993 75.61236641 22.84595912 78 23 C79.17176518 25.12232979 80.33754785 27.24757791 81.5 29.375 C81.83386719 29.97828125 82.16773438 30.5815625 82.51171875 31.203125 C85 35.7734375 85 35.7734375 85 38 C51.01 38 17.02 38 -18 38 C-17.06379358 33.31896791 -15.5690164 29.73288472 -13.4375 25.546875 C-13.0861499 24.84604797 -12.7347998 24.14522095 -12.37280273 23.42315674 C-11.63252967 21.94930973 -10.88938902 20.47689995 -10.14355469 19.00585938 C-8.9982751 16.74659734 -7.86169349 14.48312539 -6.7265625 12.21875 C-6.00570841 10.78620658 -5.28437117 9.35390617 -4.5625 7.921875 C-4.22081787 7.24276062 -3.87913574 6.56364624 -3.52709961 5.86395264 C-1.11721514 1.11721514 -1.11721514 1.11721514 0 0 Z " fill="#8EAF94" transform="translate(80,322)"/>
<path d="M0 0 C15.84 0 31.68 0 48 0 C46.68189325 3.95432024 45.45651918 7.36125722 43.6796875 11.0546875 C43.23044922 11.9921582 42.78121094 12.92962891 42.31835938 13.89550781 C41.84205078 14.87874023 41.36574219 15.86197266 40.875 16.875 C40.38580078 17.88916992 39.89660156 18.90333984 39.39257812 19.94824219 C37.93292533 22.96772003 36.46691898 25.98404701 35 29 C34.58782227 29.85303711 34.17564453 30.70607422 33.75097656 31.58496094 C32.67447126 33.81022636 31.58934698 36.03099863 30.5 38.25 C30.18659668 38.8982373 29.87319336 39.54647461 29.55029297 40.21435547 C28.03677981 43.26370011 26.62530513 45.79090178 24 48 C14.71315171 32.64609895 7.41612366 16.31547206 0 0 Z " fill="#353834" transform="translate(264,150)"/>
<path d="M0 0 C108.9 0 217.8 0 330 0 C330.33 0.99 330.66 1.98 331 3 C289.12138934 3.02286782 247.2427794 3.04049897 205.36416373 3.05106533 C200.42474196 3.0523161 195.48532019 3.05361042 190.54589844 3.05493164 C189.5625108 3.05519395 188.57912316 3.05545626 187.56593589 3.05572652 C171.62406414 3.06008283 155.68219598 3.06797017 139.74032636 3.0771528 C123.39355754 3.08649042 107.04679061 3.09205584 90.70001924 3.09408849 C80.60581937 3.0954635 70.51162964 3.09981286 60.41743289 3.10791647 C53.50400127 3.11318526 46.59057493 3.11480399 39.67714144 3.11350138 C35.68306116 3.11285821 31.68899865 3.11387316 27.69492149 3.11920547 C24.04330615 3.12404523 20.39172068 3.12433482 16.740104 3.12089889 C14.78310666 3.12027135 12.82610971 3.12460793 10.86911738 3.12908131 C9.71909814 3.12709026 8.5690789 3.12509921 7.38421059 3.12304783 C6.38554612 3.12342755 5.38688165 3.12380727 4.35795462 3.1241985 C2 3 2 3 0 2 C0 1.34 0 0.68 0 0 Z " fill="#A1BAA4" transform="translate(84,433)"/>
<path d="M0 0 C2.58647819 0.01802065 5.08580259 0.2207464 7.65600586 0.50927734 C8.54416992 0.58404297 9.43233398 0.65880859 10.34741211 0.73583984 C12.53770177 0.92425186 14.72122343 1.14117111 16.90600586 1.38427734 C16.90600586 1.71427734 16.90600586 2.04427734 16.90600586 2.38427734 C16.24866455 2.33464844 15.59132324 2.28501953 14.9140625 2.23388672 C11.96926768 2.22740098 9.70301741 2.4379719 6.90600586 3.38427734 C4.19410591 6.49773965 2.85573228 10.07349083 1.34350586 13.88427734 C0.43267748 15.98073749 -0.48142295 18.0757789 -1.39868164 20.16943359 C-1.844375 21.21502441 -2.29006836 22.26061523 -2.74926758 23.33789062 C-4.71210752 27.78457124 -6.96373308 32.05219486 -9.28149414 36.32177734 C-10.53961914 38.65240234 -11.79774414 40.98302734 -13.09399414 43.38427734 C-18.70399414 43.38427734 -24.31399414 43.38427734 -30.09399414 43.38427734 C-33.46899414 36.50927734 -33.46899414 36.50927734 -34.52124023 34.34960938 C-35.84617729 31.67603473 -36.97057514 29.50769635 -39.09399414 27.38427734 C-38.52293945 27.18833984 -37.95188477 26.99240234 -37.36352539 26.79052734 C-25.54321763 22.43073179 -10.36427871 14.78483716 -4.42602539 3.10302734 C-2.09399414 0.38427734 -2.09399414 0.38427734 0 0 Z " fill="#516353" transform="translate(195.093994140625,316.61572265625)"/>
<path d="M0 0 C27.06 0 54.12 0 82 0 C83.65 4.95 85.3 9.9 87 15 C92.33344606 26.22830749 99.27286249 32.5507951 111 37 C114.98294813 37.94487646 118.9295973 38.58141249 123 39 C123.93019094 43.70153754 124.12905288 48.24059273 124.08901978 53.01490784 C124.08649621 53.80463216 124.08397265 54.59435649 124.08137262 55.40801185 C124.07167787 58.04492175 124.05463984 60.68173164 124.03759766 63.31860352 C124.0290873 65.21282771 124.02101632 67.10705393 124.01335144 69.00128174 C123.99118317 74.13956017 123.96250631 79.27778333 123.93239641 84.41602063 C123.90171041 89.79352099 123.8761022 95.17104595 123.84970093 100.54856873 C123.80453168 109.57789321 123.75505515 118.60718665 123.703125 127.63647461 C123.64314007 138.07699968 123.59036302 148.51754276 123.54135668 158.9581247 C123.49401513 169.00148102 123.44119126 179.04480161 123.38599777 189.0881176 C123.36262635 193.36271402 123.34125176 197.63731358 123.32149124 201.91192818 C123.29800769 206.94423181 123.269752 211.9764865 123.23780251 217.00874329 C123.22685016 218.85624211 123.21755754 220.70375163 123.21003914 222.55126762 C123.1995117 225.07158781 123.1829936 227.59179986 123.16494751 230.11207581 C123.16245717 231.21051995 123.16245717 231.21051995 123.15991652 232.33115488 C123.12690271 236.008877 122.87284016 239.42265198 122 243 C121.67 243 121.34 243 121 243 C120.67 177 120.34 111 120 43 C116.37 42.34 112.74 41.68 109 41 C96.2835005 35.81920391 87.3443968 27.24154379 81.97265625 14.578125 C80.28512687 9.94325167 80 7.1835623 80 2 C53.6 2 27.2 2 0 2 C0 1.34 0 0.68 0 0 Z " fill="#A2BEA7" transform="translate(334,147)"/>
<path d="M0 0 C0.33 0 0.66 0 1 0 C1.33 64.35 1.66 128.7 2 195 C2.33 195 2.66 195 3 195 C3.02688151 196.64574566 3.04634123 198.29161413 3.0625 199.9375 C3.07410156 200.85402344 3.08570313 201.77054688 3.09765625 202.71484375 C3 205 3 205 2 206 C0.2108876 206.24832162 -1.5815051 206.47311051 -3.375 206.6875 C-10.49618622 207.81055446 -17.50542062 210.48920447 -22.68359375 215.69140625 C-24 217 -24 217 -26 217 C-26.41958984 217.87785156 -26.41958984 217.87785156 -26.84765625 218.7734375 C-27.92259959 220.85044667 -29.12032324 222.69642344 -30.4375 224.625 C-34.55583687 231.14873717 -36.17435069 238.40402633 -37 246 C-37.99 245.67 -38.98 245.34 -40 245 C-40 244.34 -40 243.68 -40 243 C-148.24 243 -256.48 243 -368 243 C-368 242.67 -368 242.34 -368 242 C-259.76 242 -151.52 242 -40 242 C-40 240.02 -40 238.04 -40 236 C-36.00561506 222.68538353 -28.33804219 213.20508849 -16.4296875 206.26171875 C-15.22699219 205.63716797 -15.22699219 205.63716797 -14 205 C-12.89011719 204.42185547 -12.89011719 204.42185547 -11.7578125 203.83203125 C-9 203 -9 203 0 203 C0 136.01 0 69.02 0 0 Z " fill="#839C87" transform="translate(454,190)"/>
<path d="M0 0 C3.24882916 0.62211622 4.01600144 0.95953974 5.9375 3.5625 C7.18993947 11.17868598 5.92858579 17.0769856 1.9375 23.5625 C1.2775 23.5625 0.6175 23.5625 -0.0625 23.5625 C-0.0625 24.2225 -0.0625 24.8825 -0.0625 25.5625 C-3.93590853 24.09327607 -5.23469922 22.22837011 -7.0625 18.5625 C-7.84270089 13.34007426 -8.12641119 7.52653259 -5.4375 2.8125 C-3.0625 0.5625 -3.0625 0.5625 0 0 Z " fill="#516153" transform="translate(194.0625,286.4375)"/>
<path d="M0 0 C11.94940814 0.56901944 19.93113588 6.37190767 28 15 C34.13538144 23.05976307 37.41832665 29.75099698 37 40 C36.34 40 35.68 40 35 40 C35 40.66 35 41.32 35 42 C35.99 42.495 35.99 42.495 37 43 C36.01 43 35.02 43 34 43 C33.84144531 42.10539062 33.68289062 41.21078125 33.51953125 40.2890625 C31.21166503 28.32896019 27.92084068 18.64150704 18 11 C11.02437927 6.67030438 4.13953444 4.04445353 -4 3 C-2.68 2.67 -1.36 2.34 0 2 C0 1.34 0 0.68 0 0 Z " fill="#9CB6A1" transform="translate(49,393)"/>
<path d="M0 0 C0.639375 0.268125 1.27875 0.53625 1.9375 0.8125 C8.63978967 3.41134701 14.81529811 5.34684528 22 6 C21.67 6.66 21.34 7.32 21 8 C18.69 7.67 16.38 7.34 14 7 C14 7.66 14 8.32 14 9 C12.58194169 8.71517632 11.16559621 8.42181856 9.75 8.125 C8.96109375 7.96257812 8.1721875 7.80015625 7.359375 7.6328125 C4.99048776 6.9974487 3.08027906 6.30017441 1 5 C0.25 2.375 0.25 2.375 0 0 Z " fill="#98B19E" transform="translate(435,180)"/>
<path d="M0 0 C1.7015625 0.21462891 1.7015625 0.21462891 3.4375 0.43359375 C7.95582457 0.99838432 12.47737409 1.53342331 17 2.0625 C17.77472656 2.15337891 18.54945313 2.24425781 19.34765625 2.33789062 C21.23173924 2.55886332 23.11586508 2.77947057 25 3 C24.67 3.66 24.34 4.32 24 5 C21.4784979 5.08172936 18.95970083 5.14083373 16.4375 5.1875 C15.73302734 5.21263672 15.02855469 5.23777344 14.30273438 5.26367188 C9.12604533 5.335239 5.5890619 4.4392311 1 2 C0.67 1.34 0.34 0.68 0 0 Z " fill="#354032" transform="translate(112,343)"/>
<path d="M0 0 C1.45922693 0.11409593 2.91740598 0.24165544 4.375 0.375 C5.59316406 0.47941406 5.59316406 0.47941406 6.8359375 0.5859375 C9 1 9 1 11 3 C11 3.99 11 4.98 11 6 C6.05 5.01 1.1 4.02 -4 3 C-2.68 2.67 -1.36 2.34 0 2 C0 1.34 0 0.68 0 0 Z " fill="#96B09C" transform="translate(49,393)"/>
<path d="M0 0 C0.66 0 1.32 0 2 0 C4.24828052 4.49656104 4.16682272 8.07872966 4 13 C3.34 13 2.68 13 2 13 C0.19789209 9.03536259 -0.58335431 5.33311515 -1 1 C-0.67 0.67 -0.34 0.34 0 0 Z " fill="#A0B9A4" transform="translate(414,147)"/>
<path d="M0 0 C0.66 0.33 1.32 0.66 2 1 C1.67 1.66 1.34 2.32 1 3 C1.66 3.33 2.32 3.66 3 4 C1.37787941 4.52973311 -0.24781584 5.04853107 -1.875 5.5625 C-2.77992188 5.85253906 -3.68484375 6.14257812 -4.6171875 6.44140625 C-7 7 -7 7 -9 6 C-9 5.34 -9 4.68 -9 4 C-7.54618103 3.30300448 -6.08677047 2.61766134 -4.625 1.9375 C-3.40683594 1.36322266 -3.40683594 1.36322266 -2.1640625 0.77734375 C-1.44992187 0.52082031 -0.73578125 0.26429688 0 0 Z " fill="#94AD98" transform="translate(445,393)"/>
<path d="M0 0 C-1.52708963 3.43595166 -3.59927045 6.11912454 -6 9 C-6.99 8.67 -7.98 8.34 -9 8 C-4.67567568 0 -4.67567568 0 0 0 Z " fill="#A3BBA6" transform="translate(79,169)"/>
<path d="M0 0 C0.99 0.33 1.98 0.66 3 1 C4.1875 4.0625 4.1875 4.0625 5 7 C4.01 7 3.02 7 2 7 C2 6.34 2 5.68 2 5 C0.68 5.33 -0.64 5.66 -2 6 C-1.34 4.02 -0.68 2.04 0 0 Z " fill="#8CA38E" transform="translate(112,256)"/>
<path d="M0 0 C2.31 0 4.62 0 7 0 C8.0625 2.375 8.0625 2.375 9 5 C8.67 5.66 8.34 6.32 8 7 C7.34 7 6.68 7 6 7 C5.67 5.68 5.34 4.36 5 3 C3.35 2.67 1.7 2.34 0 2 C0 1.34 0 0.68 0 0 Z " fill="#A9C4AF" transform="translate(449,187)"/>
<path d="M0 0 C0.99 1.485 0.99 1.485 2 3 C2.66 2.01 3.32 1.02 4 0 C4 2.31 4 4.62 4 7 C3.34 7 2.68 7 2 7 C2 7.66 2 8.32 2 9 C2.66 9.33 3.32 9.66 4 10 C3.01 10 2.02 10 1 10 C0.67 6.7 0.34 3.4 0 0 Z " fill="#94AC99" transform="translate(82,426)"/>
<path d="M0 0 C1.47919922 0.19142578 1.47919922 0.19142578 2.98828125 0.38671875 C4.47908203 0.56654297 4.47908203 0.56654297 6 0.75 C6.75925781 0.85699219 7.51851563 0.96398437 8.30078125 1.07421875 C7.97078125 1.73421875 7.64078125 2.39421875 7.30078125 3.07421875 C4.99078125 2.74421875 2.68078125 2.41421875 0.30078125 2.07421875 C0.30078125 2.73421875 0.30078125 3.39421875 0.30078125 4.07421875 C-2.66921875 3.57921875 -2.66921875 3.57921875 -5.69921875 3.07421875 C-3.85219692 0.62202936 -3.13798948 0.08628336 0 0 Z " fill="#8DA692" transform="translate(448.69921875,184.92578125)"/>
<path d="M0 0 C0.66 0 1.32 0 2 0 C3.38938077 1.96147874 4.7260411 3.96166576 6 6 C4.35 6 2.7 6 1 6 C-0.0625 4.125 -0.0625 4.125 -1 2 C-0.67 1.34 -0.34 0.68 0 0 Z " fill="#384638" transform="translate(82,320)"/>
<path d="M0 0 C-1 2 -1 2 -2 3 C-2 3.33 -2 3.66 -2 4 C-3.65 4 -5.3 4 -7 4 C-7 3.34 -7 2.68 -7 2 C-8.65 2 -10.3 2 -12 2 C-12 1.67 -12 1.34 -12 1 C-7.915021 0.45533613 -4.1274515 0 0 0 Z " fill="#96AE97" transform="translate(55,185)"/>
<path d="M0 0 C1.125 1.75 1.125 1.75 2 4 C1.375 6.1875 1.375 6.1875 0 8 C-2.125 8.75 -2.125 8.75 -4 9 C-2.80100302 5.9168649 -1.52299523 2.93720508 0 0 Z " fill="#95AC99" transform="translate(79,162)"/>
<path d="M0 0 C0.33 1.32 0.66 2.64 1 4 C1.66 4 2.32 4 3 4 C3 5.98 3 7.96 3 10 C2.01 9.67 1.02 9.34 0 9 C0 6.03 0 3.06 0 0 Z " fill="#94AB99" transform="translate(414,426)"/>
<path d="M0 0 C0.99 0.33 1.98 0.66 3 1 C3.6875 3.0625 3.6875 3.0625 4 5 C1.36 5 -1.28 5 -4 5 C-3.01 4.67 -2.02 4.34 -1 4 C-0.26676204 1.98491642 -0.26676204 1.98491642 0 0 Z " fill="#9BB8A1" transform="translate(290,270)"/>
<path d="M0 0 C0.66 0 1.32 0 2 0 C2.33 1.32 2.66 2.64 3 4 C2.01 4 1.02 4 0 4 C0.33 4.66 0.66 5.32 1 6 C-0.32 6.33 -1.64 6.66 -3 7 C-1.125 1.125 -1.125 1.125 0 0 Z " fill="#6E7F71" transform="translate(323,128)"/>
<path d="M0 0 C2.64 0 5.28 0 8 0 C8 0.66 8 1.32 8 2 C3.545 2.495 3.545 2.495 -1 3 C-0.67 2.01 -0.34 1.02 0 0 Z " fill="#A8C1AA" transform="translate(447,393)"/>
<path d="M0 0 C3.26954202 0.56371414 4.82575883 1.49962266 7 4 C6.67 4.99 6.34 5.98 6 7 C3.95880212 5.38405168 1.95927063 3.7143618 0 2 C0 1.34 0 0.68 0 0 Z " fill="#37473A" transform="translate(67,398)"/>
<path d="M0 0 C1.32 0 2.64 0 4 0 C4 1.98 4 3.96 4 6 C2.62437146 4.71034824 1.29233607 3.37310707 0 2 C0 1.34 0 0.68 0 0 Z " fill="#9EB7A1" transform="translate(419,166)"/>
<path d="M0 0 C1.98 0.495 1.98 0.495 4 1 C3.67 1.33 3.34 1.66 3 2 C2.63239269 4.32817964 2.29758419 6.6618385 2 9 C1.67 9 1.34 9 1 9 C1 7.35 1 5.7 1 4 C0.34 3.67 -0.32 3.34 -1 3 C-0.67 2.01 -0.34 1.02 0 0 Z " fill="#99B79F" transform="translate(84,147)"/>
</svg>
